<svg id="visual" viewBox="0 0 900 450" width="900" height="450" xmlns="http://www.w3.org/2000/svg" xmlns:xlink="http://www.w3.org/1999/xlink" version="1.1"><rect x="0" y="0" width="900" height="450" fill="#002233"></rect><path d="M0 381L21.5 367.3C43 353.7 86 326.3 128.8 310C171.7 293.7 214.3 288.3 257.2 294.5C300 300.7 343 318.3 385.8 325.8C428.7 333.3 471.3 330.7 514.2 323.7C557 316.7 600 305.3 642.8 299.8C685.7 294.3 728.3 294.7 771.2 298.3C814 302 857 309 878.5 312.5L900 316L900 451L878.5 451C857 451 814 451 771.2 451C728.3 451 685.7 451 642.8 451C600 451 557 451 514.2 451C471.3 451 428.7 451 385.8 451C343 451 300 451 257.2 451C214.3 451 171.7 451 128.8 451C86 451 43 451 21.5 451L0 451Z" fill="#0066FF" stroke-linecap="round" stroke-linejoin="miter"></path></svg>